# xmcd CD database file
#
# Track frame offsets:
#	150
#	18341
#	46071
#	60928
#	88876
#	117213
#	140363
#	166073
#	179029
#	199113
#
# Disc length: 2987 seconds
#
# Revision: 1
# Processed by: cddbd v1.5.1PL2 Copyright (c) Steve Scherf et al.
# Submitted via: CDex 1.51
#
DISCID=7e0ba90a
DTITLE=Jose De Castro - Music Guitar Box
DYEAR=2004
DGENRE=Jazz
TTITLE0=Atmosphere
TTITLE1=Hot Sounds
TTITLE2=I'm Heavy
TTITLE3=Near You
TTITLE4=Tic, Tac, Time
TTITLE5=When She Walks
TTITLE6=Thousand Words
TTITLE7=The Crazy Chicken
TTITLE8=Bites
TTITLE9=Free Soul
EXTD=YEAR: 2004
EXTT0=
EXTT1=
EXTT2=
EXTT3=
EXTT4=
EXTT5=
EXTT6=
EXTT7=
EXTT8=
EXTT9=
PLAYORDER=
